<?xml version="1.0" encoding="UTF-8"?>
<svg width="98px" height="95px" viewBox="0 0 98 95" version="1.1" xmlns="http://www.w3.org/2000/svg" xmlns:xlink="http://www.w3.org/1999/xlink">
    <!-- Generator: Sketch 57.1 (83088) - https://sketch.com -->
    <title>icon-kubernetes</title>
    <desc>Created with Sketch.</desc>
    <defs>
        <polygon id="path-1" points="3.34243992e-05 0.102250225 97.3450945 0.102250225 97.3450945 94.5694569 3.34243992e-05 94.5694569"></polygon>
    </defs>
    <g id="Designs" stroke="none" stroke-width="1" fill="none" fill-rule="evenodd">
        <g id="Home-Page-Octant-Build-Ready" transform="translate(-1031.000000, -1496.000000)">
            <g id="Use-Cases" transform="translate(0.000000, 1051.000000)">
                <g id="Real-Time-Updates" transform="translate(250.000000, 383.000000)">
                    <g id="icon-kubernetes" transform="translate(781.000000, 62.000000)">
                        <path d="M45.7352295,51.7381818 L48.669763,53.149523 L51.5966157,51.7415422 L52.3234083,48.5818662 L50.2980858,46.0491329 L47.0385599,46.0491329 L45.0069967,48.5780258 L45.7352295,51.7381818 Z M38.0069367,48.6121092 C38.9588719,48.3524032 39.519568,47.3707051 39.260342,46.4192499 C39.1672127,46.0784158 38.9756736,45.7731053 38.7087669,45.5417222 L38.7178878,45.499958 L30.7615722,38.3832463 C28.3339694,42.3340414 27.2922652,46.9809061 27.8006361,51.589847 L37.9992559,48.6471527 L38.0069367,48.6121092 Z M42.6533213,40.5818662 C43.4506811,41.1617642 44.5672727,40.9851065 45.1476508,40.1872667 C45.3540714,39.9035584 45.4721632,39.5646445 45.4870447,39.2137294 L45.5312091,39.1926073 L46.1327093,28.5648245 C45.4068767,28.6517132 44.6853645,28.7760456 43.9720132,28.9368617 C40.1772337,29.789907 36.6959256,31.6865767 33.9217282,34.4137294 L42.6365197,40.5914671 L42.6533213,40.5818662 Z M51.8222382,39.1791659 C51.8673627,40.1656646 52.7045665,40.9284608 53.6905851,40.8828563 C54.0405401,40.8670147 54.3775338,40.7484428 54.6607621,40.5425023 L54.6914851,40.5559436 L63.349631,34.4166097 C60.0541014,31.1882868 55.7888749,29.1327213 51.2106571,28.5648245 L51.8121572,39.1762856 L51.8222382,39.1791659 Z M66.5227483,38.3856466 L58.609637,45.4677948 L58.6139574,45.490357 C57.870363,46.140342 57.7949955,47.269895 58.4449805,48.0134893 C58.6754035,48.2770357 58.9778338,48.4671347 59.3153075,48.560264 L59.3249085,48.6029883 L69.5734533,51.5552835 C70.0165377,46.9506631 68.9455506,42.3273207 66.5227483,38.3866067 L66.5227483,38.3856466 Z M50.2424002,59.9878068 C49.7762736,59.1189199 48.6942454,58.7924872 47.8253585,59.2586139 C47.5147675,59.4251905 47.2608221,59.680096 47.0947255,59.9916472 L47.0856046,59.9916472 L41.9433303,69.2911371 C45.6252985,70.5445425 49.5842544,70.7485629 53.3756736,69.8791959 C54.0784638,69.7193399 54.7654125,69.5273207 55.4360396,69.3036184 L50.2812841,59.9873267 L50.2424002,59.9878068 Z M41.4839244,56.1474227 C41.3010261,55.3447825 40.5939154,54.7711251 39.7706331,54.7581638 C39.6530213,54.7567237 39.5349295,54.7672847 39.4192379,54.7893669 L39.4014761,54.7677648 L28.9436304,56.5429823 C30.5138674,60.8859766 33.4738434,64.5890669 37.3636724,67.0781158 L41.4162376,57.2856166 L41.3845545,57.2472127 C41.5338494,56.9006181 41.5688929,56.5151395 41.4839244,56.1474227 L41.4839244,56.1474227 Z M57.8986859,54.7456826 C57.7637924,54.7187999 57.6260186,54.7082388 57.4877648,54.7144794 C57.250141,54.7269607 57.0177978,54.7874467 56.8041764,54.8920972 C55.9424902,55.3082988 55.5608521,56.3288809 55.9386499,57.2083288 L55.9261686,57.2260906 L60.020018,67.1165197 C63.9367297,64.6173897 66.9082268,60.8835764 68.4664626,56.5064986 L57.9169277,54.7236004 L57.8986859,54.7456826 Z" id="Fill-1" fill="#FFFFFF"></path>
                        <g id="Group-5" transform="translate(0.000000, 0.377798)">
                            <mask id="mask-2" fill="white">
                                <use xlink:href="#path-1"></use>
                            </mask>
                            <g id="Clip-4"></g>
                            <path d="M62.0765437,71.7134593 C62.1711131,71.9928473 62.2844044,72.2659946 62.4135374,72.5309811 C62.2066367,72.8934173 62.149991,73.3225803 62.2570417,73.7263006 C62.7490909,74.8544134 63.3510711,75.9316412 64.0529013,76.9426223 C64.4465407,77.459634 64.8084968,77.9987279 65.13973,78.5575038 C65.2213381,78.7087189 65.3274287,78.9429823 65.4051965,79.1028383 C65.9822142,80.0672547 65.6677828,81.3172997 64.7038464,81.8943174 C63.7389499,82.4718152 62.4889049,82.1573837 61.9118872,81.1929673 C61.8437204,81.0791959 61.7865947,80.9591839 61.7424302,80.8343714 C61.6651425,80.6759556 61.5576118,80.4647345 61.4913651,80.3149595 C61.260462,79.7076988 61.0641224,79.0879568 60.9037864,78.4581338 C60.5523912,77.280096 60.0862646,76.1390219 59.5130873,75.0512331 C59.2639424,74.7147195 58.8928653,74.489577 58.479544,74.4238104 C58.4142574,74.3119592 58.1742334,73.8722352 58.0460606,73.6446925 C52.019538,75.9268407 45.3636724,75.910039 39.3486709,73.5966877 L38.890225,74.4276508 C38.5633123,74.4785359 38.2589619,74.6263906 38.0174977,74.8529733 C37.3262286,75.9868467 36.7986559,77.2119292 36.4482208,78.4926973 C36.289805,79.1225203 36.0944254,79.7422622 35.8640024,80.349523 C35.7991959,80.4983378 35.690225,80.7066787 35.6134173,80.8646145 L35.6134173,80.8689349 L35.609577,80.8727753 C35.2317792,81.9308011 34.0676628,82.4823762 33.009637,82.1045785 C31.9516112,81.7267807 31.400036,80.5626643 31.7778338,79.5041584 C31.8234383,79.3764656 31.8820042,79.2535734 31.9525713,79.1369217 C32.0288989,78.9761056 32.1311491,78.7432823 32.2117972,78.5920672 C32.5420702,78.0318512 32.9045065,77.4913171 33.2971857,76.9728653 C34.0119772,75.9350015 34.6259586,74.8313711 35.1309691,73.6768557 C35.1847345,73.2851365 35.1223282,72.8866967 34.950471,72.5309811 L35.319628,71.6476928 C29.7741134,68.3747255 25.6188179,63.1863666 23.6357396,57.060474 L22.7529313,57.2107291 C22.4106571,56.9678248 22.0069367,56.8252505 21.5878548,56.800288 C20.379574,57.0316712 19.1972157,57.379706 18.0566217,57.839592 C17.4642424,58.1060186 16.8569817,58.3383618 16.2386799,58.5356616 C16.0917852,58.5759856 15.8810441,58.6163096 15.7135074,58.6527933 C15.7005461,58.6575938 15.6890249,58.6633543 15.6751035,58.6667147 C15.6650225,58.6681548 15.6544614,58.6691149 15.6439004,58.669595 C14.5772337,59.0205101 13.4279988,58.440132 13.0770837,57.3729853 C12.7261686,56.3063186 13.3065467,55.1570837 14.3732133,54.8061686 C14.4941854,54.7663246 14.6185179,54.7380018 14.7442904,54.7216802 L14.7735734,54.7144794 L14.7918152,54.709679 C14.9612721,54.669835 15.1782538,54.6136694 15.3323492,54.5839064 C15.9770537,54.4941374 16.6260786,54.4418122 17.2770237,54.4274107 C18.5035464,54.3472427 19.719988,54.1475428 20.9081068,53.8311911 C21.259982,53.6070087 21.5576118,53.3069787 21.7789139,52.9527033 L22.6271587,52.7049985 C21.7064266,46.3112391 23.1787339,39.8027483 26.7618122,34.4281308 L26.1123072,33.8491929 C26.0883048,33.4291509 25.9471707,33.0239904 25.7047465,32.679796 C24.7720132,31.8776358 23.7624722,31.1686049 22.6919652,30.5627843 C22.1135074,30.2680348 21.5523312,29.939682 21.0122772,29.5806061 C20.8893849,29.4889169 20.7256886,29.3511431 20.5922352,29.2426523 L20.5624722,29.2215302 C19.6028563,28.5321812 19.380114,27.1981278 20.0637024,26.2346715 C20.4573417,25.7527033 21.0569217,25.4877168 21.6785839,25.52036 C22.1936754,25.5424422 22.6890849,25.7291809 23.0908851,26.0532133 C23.2286589,26.1612241 23.4173177,26.3057186 23.53973,26.4108491 C24.0111371,26.8568137 24.4566217,27.329661 24.8737834,27.8269907 C25.7023462,28.7366817 26.6168377,29.5633243 27.6052565,30.2953975 C27.9758536,30.490297 28.4078968,30.5320612 28.8092169,30.4120492 C29.050201,30.5882268 29.2935854,30.7610441 29.53985,30.9314611 C33.099886,27.1472427 37.709787,24.5136994 42.7781338,23.3687849 C43.9844944,23.0956376 45.2081368,22.9074587 46.4409001,22.8056886 L46.4884248,21.9492829 C46.8038164,21.6694149 47.0313591,21.3060186 47.1460906,20.9008581 C47.190255,19.6714551 47.1148875,18.4410921 46.9209481,17.2265707 C46.7918152,16.590027 46.699646,15.9467627 46.6444404,15.299658 C46.6391599,15.1522832 46.6468407,14.9487429 46.6487609,14.7807261 C46.6487609,14.7615242 46.6444404,14.7428023 46.6444404,14.7240804 C46.5306691,13.6050885 47.3453105,12.6061086 48.4647825,12.4923372 C49.5837744,12.3785659 50.5827543,13.1936874 50.6960456,14.3126793 C50.709967,14.4485329 50.709967,14.5858266 50.6965257,14.7221602 C50.6965257,14.899778 50.7066067,15.1354815 50.7008461,15.2982178 C50.6456406,15.9453225 50.5525113,16.5881068 50.4228983,17.2246505 C50.2270387,18.4391719 50.150231,19.670015 50.1929553,20.899898 C50.2731233,21.3108191 50.5107471,21.6742154 50.8554215,21.9127993 C50.8626223,22.0592139 50.8861446,22.5479028 50.9043864,22.8172097 C57.3087069,23.399508 63.2848245,26.2869967 67.7214281,30.9429823 L68.4919052,30.3923672 C68.9066667,30.4634143 69.3319892,30.4173297 69.7213081,30.2589139 C70.7092469,29.5258806 71.6246985,28.6982778 72.4523012,27.7876268 C72.870423,27.289817 73.3173477,26.8174497 73.790195,26.3714851 C73.9145275,26.2649145 74.1027063,26.1218602 74.24,26.0133693 C75.0407201,25.2236904 76.329649,25.2328113 77.119808,26.0335314 C77.9090069,26.8342514 77.900366,28.1236604 77.0991659,28.9133393 C76.9973957,29.0141494 76.8850645,29.1034383 76.7640924,29.1807261 C76.6277588,29.2906571 76.4482208,29.4437924 76.3181278,29.5407621 C75.7761536,29.900318 75.2140174,30.2281908 74.6341194,30.5229403 C73.5636124,31.1292409 72.5545515,31.8382718 71.6213381,32.639952 C71.3491509,32.9582238 71.2128173,33.369625 71.2411401,33.7872667 C71.1278488,33.8909571 70.7318092,34.2418722 70.5225083,34.4319712 C74.1151875,39.7878668 75.6172577,46.2757156 74.7430903,52.6656346 L75.5610921,52.9037384 C75.7655926,53.2719352 76.0680228,53.5762856 76.4342994,53.7827063 C77.6233783,54.099538 78.8403,54.299718 80.0677828,54.380366 C80.7172877,54.3952475 81.3663126,54.4470927 82.009577,54.5359016 C82.180474,54.5671047 82.4267387,54.6352715 82.6005161,54.6751155 C83.7137474,54.8215302 84.4976658,55.8425923 84.3512511,56.9563036 C84.2053165,58.070015 83.1837744,58.8534533 82.070063,58.7075188 C81.9442904,58.6907171 81.8194779,58.6623942 81.6989859,58.6225503 L81.6692229,58.6187099 C81.6557816,58.6153495 81.6437804,58.6081488 81.6293789,58.6047885 C81.4628023,58.5683048 81.2525413,58.5318212 81.1066067,58.4934173 C80.4878248,58.2946775 79.8810441,58.060414 79.2891449,57.7915872 C78.1480708,57.3312211 76.9642724,56.9831863 75.7545515,56.7522832 C75.3364296,56.7388419 74.9293489,56.890057 74.6211581,57.1732853 C74.3326493,57.1185599 74.0446205,57.0681548 73.7546715,57.0215902 C71.7960756,63.1854065 67.63982,68.4145695 62.0765437,71.7134593 L62.0765437,71.7134593 Z M97.190135,57.5846865 L88.8272187,21.2570537 C88.3711731,19.3541434 87.0870447,17.7555836 85.3262286,16.9015782 L51.4722832,0.738361836 C49.6956256,-0.109882988 47.630459,-0.109882988 45.8538014,0.738361836 L12.0070567,16.910219 C10.2457606,17.7637444 8.96067207,19.3618242 8.50510651,21.2652145 L0.155151515,57.5918872 C-0.0507890789,58.510219 -0.0517491749,59.4621542 0.152751275,60.3809661 C0.213237324,60.6608341 0.291965197,60.9363816 0.388934893,61.2056886 C0.552151215,61.6655746 0.768652865,62.1043384 1.03315932,62.5142994 C1.14837084,62.689517 1.26934293,62.859934 1.40039604,63.0250705 L24.8291389,92.1534233 C24.9313891,92.280156 25.0437204,92.3958476 25.1555716,92.5134593 C25.5232883,92.9051785 25.9385299,93.2488929 26.3916952,93.5374017 C26.9643924,93.8979178 27.5884548,94.1691449 28.2432403,94.3424422 C28.7794539,94.4893369 29.3334293,94.5656646 29.889805,94.569505 L30.2536814,94.569505 L67.459802,94.5608641 C67.6859046,94.559904 67.9115272,94.5464626 68.1366697,94.5210201 C68.4587819,94.4845365 68.7780138,94.4240504 69.0910051,94.339562 C69.3156676,94.2805161 69.5369697,94.2094689 69.7539514,94.1273807 C69.9238884,94.0625743 70.0923852,93.9977678 70.2556016,93.91952 C70.500426,93.8023882 70.7375698,93.6708551 70.9660726,93.5249205 C71.5550915,93.1543234 72.080264,92.689637 72.519988,92.149583 L73.2338194,91.2614941 L95.94009,63.0154695 C96.3750135,62.469655 96.7168077,61.8556736 96.9515512,61.1984878 C97.049961,60.9282208 97.130129,60.6517132 97.1915752,60.3708851 C97.3970357,59.4525533 97.3960756,58.500138 97.190135,57.5822862 L97.190135,57.5846865 Z" id="Fill-3" fill="#FFFFFF" mask="url(#mask-2)"></path>
                        </g>
                    </g>
                </g>
            </g>
            <g id="hero-pattern-octant-r1-16"></g>
            <g id="hero-pattern-octant-r1-16"></g>
        </g>
    </g>
</svg>