<?xml version="1.0" encoding="UTF-8"?>
<svg width="78px" height="96px" viewBox="0 0 78 96" version="1.1" xmlns="http://www.w3.org/2000/svg" xmlns:xlink="http://www.w3.org/1999/xlink">
    <!-- Generator: Sketch 57.1 (83088) - https://sketch.com -->
    <title>icon-port-forward</title>
    <desc>Created with Sketch.</desc>
    <g id="Designs" stroke="none" stroke-width="1" fill="none" fill-rule="evenodd">
        <g id="Home-Page-Octant-Build-Ready" transform="translate(-321.000000, -1246.000000)">
            <g id="hero-pattern-octant-r1-16"></g>
            <g id="hero-pattern-octant-r1-16"></g>
            <g id="icon-port-forward" transform="translate(321.000000, 1246.000000)">
                <g id="Group-3" transform="translate(0.000000, 0.458833)" fill="#FFFFFF">
                    <path d="M48.7507672,0.333560656 C48.6169967,0.32962623 48.4824393,0.328052459 48.3494557,0.328052459 C41.6522754,0.328052459 35.8639475,4.82588852 33.3679475,11.2633967 C31.6651279,10.4371672 29.7813246,9.9792 27.7739803,9.92333115 C27.659882,9.92018361 27.5457836,9.91939672 27.4324721,9.91939672 C20.8407344,9.91939672 15.3081443,14.5990033 13.9515541,20.9271344 C13.0899148,20.6887082 12.176341,20.559659 11.243882,20.5415607 C11.154177,20.5392 11.0636852,20.5384131 10.9747672,20.5384131 C5.03457049,20.5376262 0.144078689,25.3077246 0.00243934426,31.3053639 C-0.14077377,37.394282 5.40676721,42.962282 11.4665705,43.1275279 C11.6184393,43.1306754 12.0646033,43.1322492 12.7562754,43.1322492 C13.7784393,43.1322492 22.5175869,43.1291016 24.4651279,43.1235934 L26.816341,41.1563803 C24.8664393,41.1618885 13.7729311,41.1650361 12.7562754,41.1650361 C12.0842754,41.1650361 11.6514885,41.1634623 11.5200787,41.1611016 C6.49502951,41.0241836 1.85398033,36.2572328 1.96886557,31.3517902 C2.0845377,26.4738885 6.12440656,22.5048393 10.9739803,22.5056262 C11.0479475,22.5056262 11.1219148,22.5064131 11.2045377,22.5087738 C11.9819803,22.5237246 12.7295213,22.6291672 13.4259148,22.822741 L15.4371934,23.3798557 L15.8747016,21.3394623 C16.832224,16.8750866 20.237631,13.4085781 24.4549513,12.2789623 C25.4120177,12.0226105 26.4108981,11.8866098 27.4324721,11.8866098 C27.5300459,11.8866098 27.6276197,11.8873967 27.7196852,11.8897574 C29.4311607,11.9369705 31.0434885,12.3217574 32.5094557,13.0331016 L34.4302426,13.9647738 L35.202177,11.9739541 C37.4817836,6.09434754 42.642177,2.29526557 48.3494557,2.29526557 C48.4651279,2.29526557 48.5815869,2.29683934 48.7027672,2.29998689 C55.8728656,2.47467541 61.8264393,8.60372459 62.5495869,16.5575607 L62.6975213,18.1824787 L64.3216525,18.3374951 C69.296341,18.8127738 73.074177,23.8905443 72.9223082,29.9054951 C72.7877508,36.0353311 68.5425049,41.0233967 63.4584393,41.0233967 C63.3899803,41.0233967 63.3207344,41.0226098 63.2404721,41.0202492 C63.0933246,41.0171016 62.6416525,41.0155279 61.9342426,41.0155279 C61.3739803,41.0155279 58.6670951,41.0163148 57.7952262,41.0178885 L57.7952262,42.9858885 C58.6647344,42.9843148 61.3716197,42.982741 61.9342426,42.982741 C62.6196197,42.982741 63.0571279,42.9843148 63.200341,42.9866754 C63.2861115,42.9890361 63.3726689,42.9906098 63.4584393,42.9906098 C69.6197508,42.9906098 74.7305705,37.1833967 74.8887344,29.9487738 C75.0689311,22.8345443 70.4609311,16.9478557 64.5089311,16.3789377 C63.7031607,7.52175738 57.0335213,0.535003279 48.7507672,0.333560656 Z" id="Fill-1"></path>
                </g>
                <g id="Group-10" transform="translate(3.147541, 27.540984)" fill="#FFFFFF">
                    <path d="M7.8877377,27.735659 C7.8877377,27.1706754 8.34727869,26.7103475 8.91304918,26.7103475 L65.7096393,26.7103475 C66.2754098,26.7103475 66.7357377,27.1706754 66.7357377,27.735659 L66.7357377,57.1635934 L68.7029508,57.1635934 L68.7029508,27.735659 C68.7029508,26.0832 67.3628852,24.7431344 65.7096393,24.7431344 L8.91304918,24.7431344 C7.26059016,24.7431344 5.92052459,26.0832 5.92052459,27.735659 L5.92052459,57.1635934 L7.8877377,57.1635934 L7.8877377,27.735659 Z" id="Fill-1"></path>
                    <path d="M72.6432787,65.7974557 L1.96760656,65.7974557 L1.96760656,61.8850623 L27.2281967,61.8850623 L28.4494426,62.8143738 C29.5251148,63.8444066 30.8573115,63.8436197 31.3727213,63.8436197 C31.5411148,63.8436197 31.711082,63.8388984 31.8841967,63.834177 C32.0203279,63.8302426 32.1588197,63.8255213 32.2973115,63.8255213 L42.8596721,63.8255213 C42.9761311,63.8255213 43.0918033,63.827882 43.2059016,63.8294557 C43.3396721,63.8310295 43.471082,63.8333902 43.6017049,63.8333902 C44.239082,63.8333902 45.699541,63.8333902 46.8279344,62.6609311 L47.7887213,61.8850623 L72.6432787,61.8850623 L72.6432787,65.7974557 Z M72.9556721,59.9178492 L47.0931148,59.9178492 L45.4784262,61.221718 C44.9842623,61.7945705 44.3240656,61.866177 43.6017049,61.866177 C43.3601311,61.866177 43.1114754,61.8583082 42.8596721,61.8583082 L32.2973115,61.8583082 C31.984918,61.8583082 31.6733115,61.8764066 31.3727213,61.8764066 C30.757377,61.8764066 30.1876721,61.7992918 29.7470164,61.3295213 L27.891541,59.9178492 L1.65442623,59.9178492 C0.740852459,59.9178492 0.000393442623,60.7157508 0.000393442623,61.6993574 L0.000393442623,65.9831607 C0.000393442623,66.9667672 0.740852459,67.7646689 1.65442623,67.7646689 L72.9556721,67.7646689 C73.8700328,67.7646689 74.6104918,66.9667672 74.6104918,65.9831607 L74.6104918,61.6993574 C74.6104918,60.7157508 73.8700328,59.9178492 72.9556721,59.9178492 L72.9556721,59.9178492 Z" id="Fill-3"></path>
                    <polygon id="Fill-5" stroke="#FFFFFF" points="38.1470164 19.6721311 38.9685246 19.6721311 38.9685246 0 38.1470164 0"></polygon>
                    <polygon id="Fill-8" stroke="#FFFFFF" points="38.5545914 20.9056525 29.1147541 11.1931262 29.6342759 10.6803531 38.5545914 19.8590622 47.4804782 10.6761443 48 11.1882159"></polygon>
                </g>
                <g id="Group-8"></g>
            </g>
        </g>
    </g>
</svg>