<?xml version="1.0" encoding="UTF-8"?>
<svg width="65px" height="82px" viewBox="0 0 65 82" version="1.1" xmlns="http://www.w3.org/2000/svg" xmlns:xlink="http://www.w3.org/1999/xlink">
    <!-- Generator: Sketch 57.1 (83088) - https://sketch.com -->
    <title>icon-versatility</title>
    <desc>Created with Sketch.</desc>
    <defs>
        <path d="M1.235,0 C0.54925,0 0,0.536506579 0,1.20653289 L0,1.20653289 L0,35.4361382 C0,36.1061645 0.54925,36.6418618 1.235,36.6418618 L1.235,36.6418618 L63.765,36.6418618 C64.45075,36.6418618 65,36.1061645 65,35.4628421 L65,35.4628421 L65,1.20653289 C65,0.536506579 64.45075,0 63.765,0 L63.765,0 L1.235,0 Z M2.497625,34.2287961 L62.5291875,34.2287961 L62.5291875,2.41225658 L2.497625,2.41225658 L2.497625,34.2287961 Z" id="path-1"></path>
    </defs>
    <g id="Designs" stroke="none" stroke-width="1" fill="none" fill-rule="evenodd">
        <g id="Home-Page-Octant-Build-Ready" transform="translate(-1009.000000, -544.000000)">
            <g id="hero-pattern-octant-r1-16"></g>
            <g id="hero-pattern-octant-r1-16"></g>
            <g id="Callout-3" transform="translate(890.000000, 512.000000)">
                <g id="icon-versatility" transform="translate(119.000000, 32.000000)">
                    <g id="Group-3" transform="translate(0.000000, 44.506579)">
                        <mask id="mask-2" fill="white">
                            <use xlink:href="#path-1"></use>
                        </mask>
                        <g id="Clip-2"></g>
                        <polygon id="Fill-1" fill="#0091DA" mask="url(#mask-2)" points="-4.0625 40.6879145 69.0625 40.6879145 69.0625 -4.04605263 -4.0625 -4.04605263"></polygon>
                    </g>
                    <polygon id="Fill-4" fill="#0091DA" points="49.5625 62.3092105 64.1875 62.3092105 64.1875 59.8815789 49.5625 59.8815789"></polygon>
                    <polygon id="Fill-5" fill="#0091DA" points="0.8133125 62.3092105 16.2508125 62.3092105 16.2508125 59.8815789 0.8133125 59.8815789"></polygon>
                    <g id="Group-14" fill="#0091DA">
                        <path d="M39.4643438,66.4577901 C40.2370313,64.9882638 40.5595937,63.5074086 40.4304063,62.0144151 C40.3012187,60.649277 39.8210313,59.4014743 38.9898437,58.270198 C38.1822188,57.174527 37.1511563,56.3345664 35.8990938,55.7519349 C34.6226562,55.145027 33.3112812,54.8941717 31.9649687,54.9993691 C29.9970937,55.1506914 28.3753438,55.8449941 27.0989062,57.0814678 C25.9394688,58.2006059 25.2130938,59.5997309 24.9205937,61.279652 C24.6394687,62.9239678 24.8157813,64.4978822 25.4479063,66.0030138 C26.1271563,67.5882572 27.2045313,68.7834612 28.6800313,69.5886257 C30.6235312,70.6381717 32.6962188,70.8137704 34.8972812,70.1138033 C37.0057187,69.447823 38.5275312,68.2299612 39.4643438,66.4577901 L39.4643438,66.4577901 Z M45.0332188,64.7600664 C44.8325312,64.8078099 44.4344062,64.9178625 43.8380313,65.092652 C43.3578437,65.2326454 42.9475313,65.3265138 42.6087187,65.3726388 C42.4795313,65.5822243 42.2918438,66.0143428 42.0464688,66.6673757 C41.8360313,67.2500072 41.6182813,67.6586586 41.3964687,67.8917112 C41.4785313,68.0203757 41.6946562,68.3942309 42.0464688,69.0116586 C42.3032187,69.4664349 42.5323438,69.8224875 42.7314062,70.0790072 C42.4965937,70.4172572 41.5727813,71.3785993 39.9559063,72.964652 C39.1718438,72.5916059 38.4040312,72.1481586 37.6549062,71.6351191 C36.8009687,72.1376388 35.9925313,72.457277 35.2312187,72.5980796 C35.0679062,72.8659283 34.9143438,73.3037112 34.7754063,73.9098099 C34.6226562,74.5741717 34.4877813,75.0232836 34.3707813,75.2563362 L30.5073438,75.2563362 C30.3773438,74.9884875 30.2481562,74.5685072 30.1197813,73.9972046 C29.9792188,73.3911059 29.8622188,72.964652 29.7687813,72.7194612 C28.2347813,72.0429612 27.4320313,71.6820533 27.3621563,71.6351191 C27.0225312,71.7403164 26.6244062,71.9329086 26.1685937,72.2128954 C25.6404688,72.5398164 25.2724062,72.7485928 25.0611562,72.8424612 C24.7215313,72.6207375 23.7904063,71.734652 22.2685938,70.1833954 C22.3392813,69.9268757 22.7430938,69.1629809 23.4808437,67.8917112 C23.4345312,67.7517178 23.2525313,67.3317375 22.9356562,66.6317704 C22.7138438,66.1195401 22.5732813,65.6582901 22.5147812,65.250448 C22.1629687,65.2035138 21.7299063,65.1104546 21.2147812,64.9704612 C20.6184063,64.7956717 20.2024062,64.6848099 19.9675937,64.6378757 L19.9675937,60.6670796 C20.1666563,60.6209546 20.5647813,60.5092836 21.1627812,60.3344941 C21.6421563,60.1953099 22.0516562,60.1022507 22.3912813,60.0545072 C22.5090938,59.8449217 22.7016562,59.419277 22.9714063,58.7783822 C23.2054063,58.2175993 23.4166563,57.804902 23.6035313,57.5362441 C22.9941563,56.3928296 22.5497188,55.6645401 22.2685938,55.3481388 C22.5025938,55.010698 23.4345312,54.0485467 25.0611562,52.4624941 C26.0686562,52.9528757 26.8356563,53.3955138 27.3621563,53.7928362 C28.8027187,53.1624612 29.6452812,52.8420138 29.8914688,52.8298757 C29.9377813,52.6785533 30.0620938,52.2294414 30.2603438,51.4825401 C30.4009063,50.9468428 30.5244063,50.5090599 30.6292187,50.1708099 L34.4934688,50.1708099 C34.6340313,50.521198 34.8794062,51.366823 35.2312187,52.7076849 C35.3839688,52.7780862 35.7991563,52.9415467 36.4784063,53.1972572 C37.0057187,53.3955138 37.3973437,53.5945796 37.6549062,53.7928362 C37.9937188,53.6981586 38.3869687,53.5063757 38.8322187,53.2150599 C39.3587187,52.8881388 39.7340938,52.6785533 39.9559063,52.5846849 C40.3775938,52.8420138 40.8691563,53.273323 41.4314063,53.8802309 C42.0879063,54.5559217 42.5624063,55.010698 42.8540938,55.2445599 C42.2804687,56.3054349 41.8360313,57.0693296 41.5191563,57.5362441 C42.1870313,59.4605467 42.5087813,60.3409678 42.4860313,60.1775072 C42.8484062,60.2123033 43.2814688,60.3053625 43.7844063,60.4574941 C44.3832188,60.6322836 44.7975938,60.7431454 45.0332188,60.7892704 L45.0332188,64.7600664 Z" id="Fill-6"></path>
                        <path d="M63.58625,6.68998618 L63.0345625,5.31837434 L57.650125,10.6810125 L54.5666875,9.85804539 L53.7411875,6.78709145 L59.1248125,1.42445329 L57.747625,0.874999342 C53.83625,-0.686776974 49.3845625,0.221966447 46.405125,3.18772303 C43.5443125,6.03614408 42.5945,10.2116704 43.89775,13.9850191 L31.5339375,26.2979664 L32.9184375,27.6776704 L46.19225,14.457598 L45.9411875,13.8547362 C44.6086875,10.6575454 45.33425,7.01124276 47.789625,4.56661776 C49.8428125,2.52174276 52.75725,1.68016382 55.5351875,2.24256513 L51.5571875,6.20365066 L52.9685,11.4505717 L58.235125,12.8553612 L62.2139375,8.89427566 C62.7794375,11.6609664 61.933625,14.5627954 59.879625,16.6084796 C57.42425,19.0531046 53.7639375,19.7757296 50.55375,18.4486243 L49.94925,18.1993875 L40.6843125,27.4268151 L42.004625,28.8696375 L50.42375,20.484598 C54.211625,21.7809533 58.404125,20.8357954 61.2649375,17.9865651 C64.24275,15.0208086 65.154375,10.5855257 63.58625,6.68998618" id="Fill-8"></path>
                        <path d="M45.5049563,35.3316691 L41.9039563,33.4267875 C41.8568313,32.6515638 41.5342688,31.9208467 40.9728313,31.3616822 L39.0618312,29.4584191 C37.8284562,28.2292283 35.8492063,28.1992875 34.6515813,29.3920638 L32.5845813,31.4498862 L11.1370188,10.0899651 L11.1370188,5.74774145 L4.27545625,1.36262961 L0.79876875,4.82685987 L4.21533125,10.6604586 C4.48833125,11.1257546 5.08714375,11.2827414 5.55433125,11.0108467 C6.02070625,10.7397612 6.17914375,10.1425638 5.90695625,9.67807697 L3.25008125,5.14245197 L4.54520625,3.85257039 L9.17970625,6.81347171 L9.17970625,10.8975572 L31.2008938,32.8287809 L28.2092688,35.8074849 C27.0116438,37.0002612 27.0417063,38.9706888 28.2767063,40.2006888 L29.9033313,41.8207283 L31.2878312,40.4410243 L29.6603938,38.8209849 C29.4272063,38.5879322 29.2947688,38.2852875 29.2866438,37.9688862 C29.2801438,37.6678599 29.3890188,37.3903007 29.5937687,37.1863796 L36.0352688,30.7709586 C36.4691437,30.3380309 37.2060813,30.3679717 37.6773313,30.8373138 L39.5883313,32.740577 C39.8223313,32.9736296 39.9547688,33.2762743 39.9620813,33.5934849 C39.9685812,33.8945112 39.8597062,34.1712612 39.6549563,34.374373 L39.6858313,34.405123 L32.9526437,41.1118599 C32.5699562,41.4921888 32.5699562,42.1088072 32.9526437,42.4899454 C33.3345188,42.8702743 33.9544563,42.8702743 34.3371438,42.4899454 L41.4578938,35.3980243 L44.3284562,36.9169125 L50.8568938,43.4197283 L53.6258937,43.4197283 L45.5049563,35.3316691 Z" id="Fill-10"></path>
                        <polygon id="Fill-12" points="27.2523063 33.3204572 25.8678063 31.9415625 14.3416813 43.4194046 17.1123063 43.4194046"></polygon>
                    </g>
                </g>
            </g>
        </g>
    </g>
</svg>