<?xml version="1.0" encoding="UTF-8"?>
<svg width="96px" height="80px" viewBox="0 0 96 80" version="1.1" xmlns="http://www.w3.org/2000/svg" xmlns:xlink="http://www.w3.org/1999/xlink">
    <!-- Generator: Sketch 57.1 (83088) - https://sketch.com -->
    <title>New Icon</title>
    <desc>Created with Sketch.</desc>
    <defs>
        <polygon id="path-1" points="0.841623481 0.0561383169 21.4422197 0.0561383169 21.4422197 20.7585416 0.841623481 20.7585416"></polygon>
        <polygon id="path-3" points="0 0.609218069 72.203623 0.609218069 72.203623 54.7618451 0 54.7618451"></polygon>
    </defs>
    <g id="Designs" stroke="none" stroke-width="1" fill="none" fill-rule="evenodd">
        <g id="Home-Page-Octant-Build-Ready" transform="translate(-351.000000, -543.000000)">
            <g id="hero-pattern-octant-r1-16"></g>
            <g id="hero-pattern-octant-r1-16"></g>
            <g id="Callout-1" transform="translate(248.000000, 512.000000)">
                <g id="New-Icon" transform="translate(103.000000, 31.000000)">
                    <path d="M66.3943903,9.96229489 L66.4133437,9.96229489 C67.115524,9.96229489 67.5505508,9.53268333 67.5505508,8.83321073 C67.5505508,8.11658977 67.095668,7.70593167 66.4331997,7.70593167 C65.7689264,7.70593167 65.2941876,8.14727631 65.2941876,8.86479982 C65.2941876,9.56427241 65.7490704,9.96229489 66.3943903,9.96229489" id="Fill-1" fill="#0091DA"></path>
                    <path d="M61.8816638,9.96229489 L61.9006173,9.96229489 C62.6027975,9.96229489 63.0378244,9.53268333 63.0378244,8.83321073 C63.0378244,8.11658977 62.5829415,7.70593167 61.9204733,7.70593167 C61.2562,7.70593167 60.7814611,8.14727631 60.7814611,8.86479982 C60.7814611,9.56427241 61.236344,9.96229489 61.8816638,9.96229489" id="Fill-3" fill="#0091DA"></path>
                    <path d="M57.3689374,9.96229489 L57.3878909,9.96229489 C58.0900711,9.96229489 58.5250979,9.53268333 58.5250979,8.83321073 C58.5250979,8.11658977 58.0702151,7.70593167 57.4077468,7.70593167 C56.7434735,7.70593167 56.2687347,8.14727631 56.2687347,8.86479982 C56.2687347,9.56427241 56.7236175,9.96229489 57.3689374,9.96229489" id="Fill-5" fill="#0091DA"></path>
                    <path d="M15.5036522,37.2422677 L17.2139755,38.9318325 L23.6310725,32.5878417 L26.0796779,35.0084681 L28.4957916,26.0940283 L19.4775591,28.4821632 L21.9207492,30.8982769 L15.5036522,37.2422677 Z M17.2139755,40.5185071 L13.8998292,37.2422677 L20.3169262,30.8982769 L17.2816664,27.8973138 L30.0960044,24.5037435 L26.660917,37.1709667 L23.6310725,34.1745163 L17.2139755,40.5185071 Z" id="Fill-7" fill="#0091DA"></path>
                    <path d="M93.1507966,65.3384123 L61.5923981,65.3384123 L61.5923981,51.1792818 L89.3817675,51.1792818 L89.3817675,48.9238211 L61.5923981,48.9238211 L61.5923981,42.7747801 L93.1507966,42.7747801 L93.1507966,65.3384123 Z M59.3360349,67.5947755 L95.4071598,67.5947755 L95.4071598,40.5184169 L59.3360349,40.5184169 L59.3360349,67.5947755 Z" id="Fill-9" fill="#0091DA"></path>
                    <path d="M65.0829017,46.8736895 L65.1018552,46.8736895 C65.804938,46.8736895 66.2399648,46.444078 66.2399648,45.7446054 C66.2399648,45.0279844 65.7841794,44.6173263 65.1217112,44.6173263 C64.4583404,44.6173263 63.9836016,45.0586709 63.9836016,45.7761945 C63.9836016,46.475667 64.4375818,46.8736895 65.0829017,46.8736895" id="Fill-11" fill="#0091DA"></path>
                    <path d="M69.5956282,46.8736895 L69.6145816,46.8736895 C70.3176644,46.8736895 70.7526912,46.444078 70.7526912,45.7446054 C70.7526912,45.0279844 70.2969058,44.6173263 69.6344376,44.6173263 C68.9710668,44.6173263 68.496328,45.0586709 68.496328,45.7761945 C68.496328,46.475667 68.9503083,46.8736895 69.5956282,46.8736895" id="Fill-13" fill="#0091DA"></path>
                    <path d="M74.1083546,46.8736895 L74.127308,46.8736895 C74.8303908,46.8736895 75.2654177,46.444078 75.2654177,45.7446054 C75.2654177,45.0279844 74.8096323,44.6173263 74.147164,44.6173263 C73.4837933,44.6173263 73.0090544,45.0586709 73.0090544,45.7761945 C73.0090544,46.475667 73.4630347,46.8736895 74.1083546,46.8736895" id="Fill-15" fill="#0091DA"></path>
                    <g id="Group-19" transform="translate(46.029810, 58.958771)">
                        <mask id="mask-2" fill="white">
                            <use xlink:href="#path-1"></use>
                        </mask>
                        <g id="Clip-18"></g>
                        <path d="M16.8654125,13.4968427 C16.0955414,14.9598687 14.8446136,15.9653041 13.1126292,16.5140516 C11.3030259,17.0916806 9.59902041,16.9472734 8.00241779,16.0808299 C6.78939693,15.4165566 5.904,14.4309771 5.34532447,13.1213839 C4.82636093,11.8794816 4.68195368,10.5807189 4.91300527,9.22419335 C5.15217978,7.83788379 5.7505673,6.68262582 6.70275258,5.75932199 C7.7515102,4.73854327 9.08456959,4.16632956 10.7019307,4.04087576 C10.8842449,4.02643504 11.0638514,4.03275285 11.2443605,4.03455795 L11.2443605,0.0561383169 L9.60443568,0.0561383169 C9.51779133,0.335927356 9.41670626,0.696945471 9.30118046,1.13919266 C9.13691722,1.75563109 9.03673469,2.12567466 8.99792525,2.25112846 C8.79665765,2.26105645 8.10350287,2.52550222 6.91936345,3.04536831 C6.48614171,2.71774437 5.8561651,2.35221353 5.02853107,1.94787324 C3.69005641,3.25656391 2.92560055,4.05080376 2.7333584,4.32969025 C2.96441,4.5896233 3.32994084,5.191621 3.82995093,6.13387828 C3.67651823,6.35590443 3.50232699,6.69706654 3.31008484,7.16007228 C3.0880587,7.68896382 2.93011328,8.04005393 2.83354093,8.21334263 C2.55465444,8.25124953 2.21800504,8.32886842 1.82359275,8.44439422 C1.33260812,8.58880147 1.00588672,8.68086109 0.841623481,8.71876799 L0.841623481,11.9950074 C1.03386563,12.0338168 1.37593029,12.1258765 1.86691493,12.2702837 C2.29020867,12.3858095 2.64581151,12.4625258 2.934626,12.5004327 C2.98336345,12.8379847 3.09888925,13.2179562 3.28120339,13.64125 C3.54113644,14.218879 3.69005641,14.5654564 3.72886586,14.6809822 C3.12235542,15.7297398 2.79021876,16.3597164 2.7333584,16.5718145 C3.98428617,17.8516238 4.74874203,18.583588 5.02853107,18.7659021 C5.20181977,18.6891858 5.50417244,18.5167996 5.93829672,18.2469386 C6.31375556,18.0149845 6.64047695,17.857039 6.91936345,17.7694921 C6.97712635,17.8083016 7.63598441,18.1070441 8.89774272,18.6657196 C8.97355652,18.8669872 9.07012887,19.2189799 9.18565467,19.7198925 C9.29125247,20.1910211 9.39775281,20.5375985 9.50425315,20.7587221 L12.6794075,20.7587221 C12.7759798,20.56648 12.8869929,20.1955339 13.0115441,19.6467863 C13.1261674,19.1467762 13.2525237,18.7857581 13.387003,18.5646345 C14.0124669,18.4482062 14.6767402,18.1837604 15.379823,17.7694921 C15.9944563,18.1936884 16.6253355,18.5592193 17.2697528,18.8669872 C18.5982995,17.5582965 19.3591452,16.7649592 19.5513873,16.4860727 C19.3880266,16.2739746 19.1993946,15.9797448 18.988199,15.604286 C18.6993845,15.0952504 18.5206806,14.78658 18.4538922,14.6809822 C18.6371089,14.48874 18.8149103,14.1520906 18.988199,13.6701314 C19.1903692,13.1313119 19.3438019,12.7748065 19.4503022,12.6015178 C19.7291887,12.5636109 20.0658381,12.485992 20.4602504,12.3704662 C20.951235,12.226059 21.278859,12.1358044 21.4422197,12.096995 L21.4422197,10.4417269 L17.6668727,10.4417269 C17.652432,11.4661158 17.3961091,12.4850895 16.8654125,13.4968427" id="Fill-17" fill="#0091DA" mask="url(#mask-2)"></path>
                    </g>
                    <g id="Group-22" transform="translate(0.000000, 0.293327)">
                        <mask id="mask-4" fill="white">
                            <use xlink:href="#path-3"></use>
                        </mask>
                        <g id="Clip-21"></g>
                        <polygon id="Fill-20" fill="#0091DA" mask="url(#mask-4)" points="72.203623 0.609127815 0 0.609127815 0 54.7618451 57.0706462 54.7618451 57.0706462 52.5054819 2.25636322 52.5054819 2.25636322 2.86549103 69.9472598 2.86549103 69.9472598 12.7023321 6.13460032 12.7023321 6.13460032 14.9586953 69.9472598 14.9586953 69.9472598 37.6423661 72.203623 37.6423661"></polygon>
                    </g>
                </g>
            </g>
        </g>
    </g>
</svg>