<?xml version="1.0" encoding="UTF-8"?>
<svg width="88px" height="98px" viewBox="0 0 88 98" version="1.1" xmlns="http://www.w3.org/2000/svg" xmlns:xlink="http://www.w3.org/1999/xlink">
    <!-- Generator: Sketch 57.1 (83088) - https://sketch.com -->
    <title>icon-plugins</title>
    <desc>Created with Sketch.</desc>
    <g id="Designs" stroke="none" stroke-width="1" fill="none" fill-rule="evenodd">
        <g id="Home-Page-Octant-Build-Ready" transform="translate(-316.000000, -1745.000000)">
            <g id="hero-pattern-octant-r1-16"></g>
            <g id="hero-pattern-octant-r1-16"></g>
            <path d="M351.822812,1834.07881 C351.822812,1830.84283 353.778982,1828.05499 356.576013,1826.82694 L356.573093,1813.44066 C346.806843,1811.90415 339.335443,1803.46788 339.335443,1793.30304 C339.335443,1790.94298 339.735435,1788.67604 340.477028,1786.56625 L329.653862,1780.33581 C327.189673,1782.14296 323.788273,1782.43978 320.973724,1780.81597 C317.175252,1778.63051 315.873085,1773.78526 318.062827,1769.99927 C320.255489,1766.21328 325.119636,1764.9154 328.915189,1767.10085 C331.720979,1768.71594 333.163289,1771.78314 332.845047,1774.80087 L343.51931,1780.94692 C347.262309,1776.06675 353.160015,1772.91515 359.790554,1772.91515 C366.397736,1772.91515 372.283763,1776.04929 376.023843,1780.90618 L386.692267,1774.76595 C386.385703,1771.75695 387.830933,1768.70721 390.627964,1767.09794 C394.426436,1764.91249 399.287664,1766.21037 401.480326,1769.99636 C403.672988,1773.78235 402.367901,1778.6276 398.572348,1780.81306 C395.743201,1782.44269 392.324284,1782.13714 389.854255,1780.31253 L379.080723,1786.51678 C379.833994,1788.64112 380.242746,1790.92552 380.242746,1793.30304 C380.242746,1803.47661 372.756748,1811.91579 362.978819,1813.44648 L362.978819,1826.83858 C365.764171,1828.06954 367.711582,1830.85156 367.711582,1834.07881 C367.711582,1838.44973 364.152521,1842 359.770117,1842 C355.384793,1842 351.822812,1838.44973 351.822812,1834.07881 Z M318.068666,1817.99491 C315.876005,1814.20892 317.181091,1809.36367 320.979564,1807.17821 C324.775117,1804.99276 329.636345,1806.29064 331.829006,1810.07663 C334.021668,1813.86262 332.722421,1818.70787 328.921029,1820.89333 C325.122556,1823.07878 320.261328,1821.7809 318.068666,1817.99491 Z M390.625044,1820.89333 C386.823652,1818.70787 385.524404,1813.86262 387.717066,1810.07663 C389.909728,1806.29064 394.770956,1804.99276 398.569429,1807.17821 C402.367901,1809.36367 403.670068,1814.20892 401.477406,1817.99491 C399.284744,1821.7809 394.423517,1823.07878 390.625044,1820.89333 Z M351.819893,1753.91828 C351.819893,1749.55027 355.381873,1746 359.767197,1746 C364.149601,1746 367.708662,1749.55027 367.708662,1753.91828 C367.708662,1758.28919 364.149601,1761.83946 359.767197,1761.83946 C355.381873,1761.83946 351.819893,1758.28919 351.819893,1753.91828 Z" id="icon-plugins" stroke="#FEFEFE" stroke-width="2"></path>
        </g>
    </g>
</svg>