<?xml version="1.0" encoding="UTF-8"?>
<svg width="82px" height="82px" viewBox="0 0 82 82" version="1.1" xmlns="http://www.w3.org/2000/svg" xmlns:xlink="http://www.w3.org/1999/xlink">
    <!-- Generator: Sketch 57.1 (83088) - https://sketch.com -->
    <title>icon-extensibility</title>
    <desc>Created with Sketch.</desc>
    <defs>
        <polygon id="path-1" points="0.525983505 0.27643299 26.5478804 0.27643299 26.5478804 25.4579567 0.525983505 25.4579567"></polygon>
        <polygon id="path-3" points="0.669187629 0.27643299 19.1242598 0.27643299 19.1242598 18.5196577 0.669187629 18.5196577"></polygon>
        <polygon id="path-5" points="0.0371958763 0.180061856 8.90996092 0.180061856 8.90996092 16.9072165 0.0371958763 16.9072165"></polygon>
        <polygon id="path-7" points="0 0.388105155 15.3438062 0.388105155 15.3438062 14.4743526 0 14.4743526"></polygon>
    </defs>
    <g id="Designs" stroke="none" stroke-width="1" fill="none" fill-rule="evenodd">
        <g id="Home-Page-Octant-Build-Ready" transform="translate(-679.000000, -544.000000)">
            <g id="hero-pattern-octant-r1-16"></g>
            <g id="hero-pattern-octant-r1-16"></g>
            <g id="Callout-2" transform="translate(570.000000, 512.000000)">
                <g id="icon-extensibility" transform="translate(109.000000, 32.000000)">
                    <g id="Group-3" transform="translate(0.845361, 0.568843)">
                        <mask id="mask-2" fill="white">
                            <use xlink:href="#path-1"></use>
                        </mask>
                        <g id="Clip-2"></g>
                        <path d="M6.17722062,4.43298763 L8.26188041,2.34832784 L0.525983505,0.276348454 L2.59880825,8.0114 L4.68262268,5.92758557 L24.2129938,25.4579567 C24.9704371,25.1840598 25.7498598,24.9659567 26.5478804,24.8036474 L6.17722062,4.43298763 Z" id="Fill-1" fill="#0091DA" mask="url(#mask-2)"></path>
                    </g>
                    <g id="Group-6" transform="translate(62.556701, 0.568843)">
                        <mask id="mask-4" fill="white">
                            <use xlink:href="#path-3"></use>
                        </mask>
                        <g id="Clip-5"></g>
                        <path d="M14.9676206,5.92716289 L17.0522804,8.01182268 L19.1242598,0.275925773 L11.3892082,2.34875052 L13.4730227,4.43256495 L0.669187629,17.2372454 C1.26178557,17.6278021 1.8264866,18.0631629 2.37512577,18.5196577 L14.9676206,5.92716289 Z" id="Fill-4" fill="#0091DA" mask="url(#mask-4)"></path>
                    </g>
                    <g id="Group-9" transform="translate(66.783505, 64.816266)">
                        <mask id="mask-6" fill="white">
                            <use xlink:href="#path-5"></use>
                        </mask>
                        <g id="Clip-8"></g>
                        <path d="M6.7628866,9.44775258 C6.22608247,9.17216495 5.65715464,9.04451546 5.09160825,9.02676289 L2.24105155,0.180061856 C1.9054433,0.207958763 1.56898969,0.239237113 1.22746392,0.239237113 C1.22661856,0.239237113 1.00428866,0.237546392 0.894391753,0.235010309 C0.788721649,0.232474227 0.492,0.231628866 0.0371958763,0.230783505 L3.03061856,9.52129897 C2.37630928,9.88818557 1.81752577,10.4418969 1.45063918,11.1587629 C0.456494845,13.098866 1.22239175,15.4777113 3.16164948,16.4718557 C5.10175258,17.466 7.48059794,16.7001031 8.47474227,14.76 C9.4688866,12.8207423 8.70214433,10.4418969 6.7628866,9.44775258" id="Fill-7" fill="#0091DA" mask="url(#mask-6)"></path>
                    </g>
                    <path d="M42.3671175,71.5252186 L42.3662722,65.1190742 C41.6823753,65.1216103 40.997633,65.1241464 40.3128907,65.1266825 L40.2528701,65.1266825 L40.2537155,71.5243732 C38.9146639,71.8946412 37.8063959,72.9462701 37.4606433,74.3935278 C36.9542722,76.5136928 38.2620454,78.6423113 40.3813649,79.1495278 C42.5015299,79.6567443 44.6309938,78.3489711 45.1373649,76.2288062 C45.631901,74.161899 44.3942928,72.0966825 42.3671175,71.5252186" id="Fill-10" fill="#0091DA"></path>
                    <g id="Group-14" transform="translate(0.000000, 64.816266)">
                        <mask id="mask-8" fill="white">
                            <use xlink:href="#path-7"></use>
                        </mask>
                        <g id="Clip-13"></g>
                        <path d="M13.5423423,0.390641237 C13.0030021,0.390641237 12.6073732,0.389795876 12.356301,0.388105155 L5.72275464,7.02080619 C5.18679588,6.7486 4.58912577,6.5803732 3.94665155,6.5803732 C1.76731134,6.5803732 -0.00033814433,8.34802268 -0.00033814433,10.5273629 C-0.00033814433,12.7067031 1.76731134,14.4743526 3.94665155,14.4743526 C6.12683711,14.4743526 7.89364124,12.7067031 7.89364124,10.5273629 C7.89364124,9.76062062 7.66539381,9.05136289 7.28751753,8.44523918 L15.3438062,0.388950515 C14.6379299,0.389795876 14.0326515,0.390641237 13.5423423,0.390641237" id="Fill-12" fill="#0091DA" mask="url(#mask-8)"></path>
                    </g>
                    <path d="M53.1099629,16.8566639 C45.9277773,16.8566639 39.7211381,21.6794474 37.0455711,28.5818186 C35.2187464,27.6958804 33.1991794,27.2047258 31.0468907,27.1455505 C30.9243134,27.1421691 30.8017361,27.1413237 30.6800041,27.1413237 C23.6119423,27.1413237 17.6792,32.1593856 16.2251794,38.9442515 C15.3012,38.6889526 14.3214268,38.5511588 13.3213649,38.5317155 C13.2249938,38.5291794 13.1286227,38.528334 13.0330969,38.528334 C6.66414845,38.5274887 1.4195299,43.6419216 1.26736495,50.0734268 C1.11435464,56.6021485 7.0623134,62.572932 13.5606021,62.7504577 C13.7229113,62.7529938 14.2013856,62.7546845 14.9436124,62.7546845 C22.7598186,62.7546845 59.9370969,62.5949113 67.6755299,62.5949113 C68.4109938,62.5949113 68.8810144,62.5966021 69.0340247,62.5991381 C69.1261691,62.6016742 69.2191588,62.6033649 69.3113031,62.6033649 C75.9169526,62.6033649 81.3982722,56.3764371 81.5681897,48.6185608 C81.760932,40.9891794 76.8197979,34.6777155 70.4373237,34.0673649 C69.5733649,24.5697361 62.4216124,17.0789938 53.5394062,16.8617361 C53.3965402,16.8583546 53.2528289,16.8566639 53.1099629,16.8566639 M53.1099629,18.970066 C53.2333856,18.970066 53.358499,18.9717567 53.4878392,18.9751381 C61.1755505,19.1628082 67.5571794,25.7329526 68.3323753,34.2592619 L68.4913031,36.004932 L70.2361278,36.171468 C75.5686639,36.6812206 79.6179423,42.1253443 79.455633,48.572066 C79.3119216,55.143901 74.760499,60.4899629 69.3113031,60.4899629 C69.2377567,60.4899629 69.1633649,60.4891175 69.0779835,60.4865814 C68.9190557,60.4832 68.4346639,60.4815093 67.6755299,60.4815093 C63.8122309,60.4815093 52.426066,60.5220866 41.4160866,60.5609732 C30.3249526,60.6007052 18.857633,60.6412825 14.9436124,60.6412825 C14.2233649,60.6412825 13.7592619,60.6395918 13.6180866,60.637901 C8.23229278,60.4908082 3.25649897,55.3806021 3.38076701,50.1233031 C3.50418969,44.8947464 7.83412784,40.6408907 13.0322515,40.6417361 C13.1117155,40.6417361 13.1911794,40.6425814 13.2790969,40.6442722 C14.1126227,40.6611794 14.9140247,40.7744577 15.6604784,40.9815711 L17.8212206,41.5800866 L18.2912412,39.3872206 C19.5499835,33.5161897 24.7599423,29.2547258 30.6800041,29.2547258 C30.7848289,29.2547258 30.8896536,29.2555711 30.9885608,29.2581072 C32.8238392,29.3088289 34.5509113,29.7213649 36.1232825,30.4838804 L38.1868082,31.4847876 L39.0161072,29.3460247 C41.4592,23.0430144 46.9920866,18.970066 53.1099629,18.970066" id="Fill-15" fill="#0091DA"></path>
                </g>
            </g>
        </g>
    </g>
</svg>